<svg width="100%" height="100%" viewBox="0 0 730 188" version="1.1" xmlns="http://www.w3.org/2000/svg" xmlns:xlink="http://www.w3.org/1999/xlink" xml:space="preserve" xmlns:serif="http://www.serif.com/" style="fill-rule:evenodd;clip-rule:evenodd;stroke-linejoin:round;stroke-miterlimit:2;">
<g transform="matrix(4.16667,0,0,4.16667,0,0)">
<path d="M24.014,41.972L24.014,18.769L41.971,18.769L41.971,41.972L24.014,41.972ZM24.014,15.74L24.014,3.029L41.971,3.029L41.971,15.74L24.014,15.74ZM3.028,41.972L3.028,3.029L20.986,3.029L20.986,41.972L3.028,41.972ZM0,0L0,45L45,45L45,0L0,0Z" style="fill:rgb(34,30,31);fill-rule:nonzero;"></path>
<path d="M55.886,4.726L55.886,9.92L64.168,9.92L64.168,12.621L55.886,12.621L55.886,20L53,20L53,2L65,2L64.975,4.726L55.886,4.726Z" style="fill:rgb(34,30,31);fill-rule:nonzero;"></path>
<rect x="69" y="2" width="3" height="18" style="fill:rgb(34,30,31);fill-rule:nonzero;"></rect>
<path d="M85.37,11.849C88.173,11.849 89.782,10.666 89.782,8.223C89.782,5.858 88.173,4.726 85.37,4.726L81.062,4.726L81.062,11.849L85.37,11.849ZM86.2,14.549C85.941,14.574 85.655,14.574 85.37,14.574L81.062,14.574L81.062,20L78,20L78,2L85.37,2C90.016,2 92.689,4.238 92.689,8.146C92.689,11.026 91.339,13.057 88.925,13.983L93,20L89.522,20L86.2,14.549Z" style="fill:rgb(34,30,31);fill-rule:nonzero;"></path>
<path d="M98.995,4.726L98.995,9.586L107.68,9.586L107.68,12.312L98.995,12.312L98.995,17.274L109,17.274L109,20L96,20L96,2L108.695,2L108.695,4.726L98.995,4.726Z" style="fill:rgb(34,30,31);fill-rule:nonzero;"></path>
<path d="M126.975,4.746L125.236,6.932C123.951,5.534 122.112,4.67 120.323,4.67C116.795,4.67 114.024,7.415 114.024,10.924C114.024,14.433 116.795,17.204 120.323,17.204C122.087,17.204 123.901,16.39 125.236,15.093L127,17.076C125.211,18.856 122.667,20 120.172,20C115.007,20 111,16.06 111,10.95C111,5.89 115.057,2 120.273,2C122.767,2 125.262,3.043 126.975,4.746Z" style="fill:rgb(34,30,31);fill-rule:nonzero;"></path>
<path d="M141,17.249L141,20L130,20L130,2L133.083,2L133.083,17.249L141,17.249Z" style="fill:rgb(34,30,31);fill-rule:nonzero;"></path>
<path d="M152.448,5.241L149.04,13.237L155.856,13.237L152.448,5.241ZM147.904,15.937L146.175,20L143,20L150.976,2L154.1,2L162,20L158.747,20L157.017,15.937L147.904,15.937Z" style="fill:rgb(34,30,31);fill-rule:nonzero;"></path>
<path d="M168.524,20L165.576,20L165.576,14.112L159,2L161.998,2L167.038,10.769L171.976,2L175,2L168.524,14.009L168.524,20Z" style="fill:rgb(34,30,31);fill-rule:nonzero;"></path>
<path d="M60.963,27.575L60.963,42L58.011,42L58.011,27.575L53,27.575L53,25L66,25L66,27.575L60.963,27.575Z" style="fill:rgb(34,30,31);fill-rule:nonzero;"></path>
<rect x="69" y="25" width="3" height="17" style="fill:rgb(34,30,31);fill-rule:nonzero;"></rect>
<path d="M88,39.402L88,42L78,42L78,25L80.802,25L80.802,39.402L88,39.402Z" style="fill:rgb(34,30,31);fill-rule:nonzero;"></path>
<path d="M94.995,27.575L94.995,32.165L103.679,32.165L103.679,34.739L94.995,34.739L94.995,39.426L105,39.426L105,42L92,42L92,25L104.695,25L104.695,27.575L94.995,27.575Z" style="fill:rgb(34,30,31);fill-rule:nonzero;"></path>
</g>
</svg>